<svg width="34" height="31" viewBox="0 0 34 31" fill="none" xmlns="http://www.w3.org/2000/svg">
<path d="M16.1087 0.752403C16.4794 0.0235471 17.5206 0.0235471 17.8913 0.752403L22.1539 9.13283C22.2992 9.4186 22.5728 9.61735 22.8895 9.66728L32.1769 11.1315C32.9847 11.2589 33.3064 12.2491 32.7278 12.8269L26.0748 19.4705C25.8479 19.6971 25.7434 20.0187 25.7938 20.3353L27.2712 29.6207C27.3997 30.4282 26.5573 31.0402 25.829 30.6685L17.4546 26.394C17.1691 26.2483 16.8309 26.2483 16.5454 26.394L8.171 30.6685C7.44267 31.0402 6.60031 30.4282 6.7288 29.6207L8.20622 20.3353C8.25659 20.0187 8.15211 19.6971 7.92524 19.4705L1.27218 12.8269C0.693556 12.2491 1.01531 11.2589 1.82305 11.1315L11.1105 9.66728C11.4272 9.61735 11.7008 9.4186 11.8461 9.13283L16.1087 0.752403Z" fill="#D9D9D9"/>
</svg>
